<mxfile host="app.diagrams.net" agent="Mozilla/5.0 (Windows NT 10.0; Win64; x64) AppleWebKit/537.36 (KHTML, like Gecko) Chrome/137.0.0.0 Safari/537.36" version="27.1.6">
  <diagram name="Página-1" id="Z3OCRz1bkMbNYwDm8ukF">
    <mxGraphModel dx="1106" dy="605" grid="1" gridSize="10" guides="1" tooltips="1" connect="1" arrows="1" fold="1" page="1" pageScale="1" pageWidth="827" pageHeight="1169" math="0" shadow="0">
      <root>
        <mxCell id="0" />
        <mxCell id="1" parent="0" />
        <mxCell id="c3A7Y9qn3njgjon1qsC4-15" style="rounded=0;orthogonalLoop=1;jettySize=auto;html=1;endArrow=none;startFill=0;jumpStyle=arc;jumpSize=20;" edge="1" parent="1" source="1cpv1ZVEstOD3ygJp6sk-1" target="1cpv1ZVEstOD3ygJp6sk-13">
          <mxGeometry relative="1" as="geometry" />
        </mxCell>
        <mxCell id="1cpv1ZVEstOD3ygJp6sk-1" value="Cliente" style="shape=umlActor;verticalLabelPosition=bottom;verticalAlign=top;html=1;outlineConnect=0;" parent="1" vertex="1">
          <mxGeometry x="740" y="20" width="30" height="60" as="geometry" />
        </mxCell>
        <mxCell id="c3A7Y9qn3njgjon1qsC4-6" style="rounded=0;orthogonalLoop=1;jettySize=auto;html=1;endArrow=none;startFill=0;" edge="1" parent="1" source="1cpv1ZVEstOD3ygJp6sk-2" target="c3A7Y9qn3njgjon1qsC4-3">
          <mxGeometry relative="1" as="geometry" />
        </mxCell>
        <mxCell id="c3A7Y9qn3njgjon1qsC4-14" style="rounded=0;orthogonalLoop=1;jettySize=auto;html=1;endArrow=none;endFill=1;startFill=0;" edge="1" parent="1" source="1cpv1ZVEstOD3ygJp6sk-2" target="1cpv1ZVEstOD3ygJp6sk-6">
          <mxGeometry relative="1" as="geometry" />
        </mxCell>
        <mxCell id="1cpv1ZVEstOD3ygJp6sk-2" value="Garçom" style="shape=umlActor;verticalLabelPosition=bottom;verticalAlign=top;html=1;outlineConnect=0;" parent="1" vertex="1">
          <mxGeometry x="100" y="100" width="30" height="60" as="geometry" />
        </mxCell>
        <mxCell id="c3A7Y9qn3njgjon1qsC4-13" style="rounded=0;orthogonalLoop=1;jettySize=auto;html=1;endArrow=none;startFill=0;jumpStyle=arc;jumpSize=26;" edge="1" parent="1" source="1cpv1ZVEstOD3ygJp6sk-3" target="1cpv1ZVEstOD3ygJp6sk-6">
          <mxGeometry relative="1" as="geometry" />
        </mxCell>
        <mxCell id="1cpv1ZVEstOD3ygJp6sk-3" value="Cozinheiro" style="shape=umlActor;verticalLabelPosition=bottom;verticalAlign=top;html=1;outlineConnect=0;" parent="1" vertex="1">
          <mxGeometry x="740" y="170" width="30" height="60" as="geometry" />
        </mxCell>
        <mxCell id="c3A7Y9qn3njgjon1qsC4-10" style="rounded=0;orthogonalLoop=1;jettySize=auto;html=1;endArrow=none;startFill=0;jumpStyle=arc;jumpSize=18;" edge="1" parent="1" source="1cpv1ZVEstOD3ygJp6sk-4" target="1cpv1ZVEstOD3ygJp6sk-14">
          <mxGeometry relative="1" as="geometry" />
        </mxCell>
        <mxCell id="c3A7Y9qn3njgjon1qsC4-22" style="rounded=0;orthogonalLoop=1;jettySize=auto;html=1;endArrow=none;startFill=0;" edge="1" parent="1" source="1cpv1ZVEstOD3ygJp6sk-5" target="c3A7Y9qn3njgjon1qsC4-21">
          <mxGeometry relative="1" as="geometry" />
        </mxCell>
        <mxCell id="1cpv1ZVEstOD3ygJp6sk-5" value="Sistema de Estoque&lt;div&gt;&amp;lt;&amp;lt;System&amp;gt;&amp;gt;&lt;/div&gt;" style="shape=umlActor;verticalLabelPosition=bottom;verticalAlign=top;html=1;outlineConnect=0;" parent="1" vertex="1">
          <mxGeometry x="770" y="370" width="30" height="60" as="geometry" />
        </mxCell>
        <mxCell id="1cpv1ZVEstOD3ygJp6sk-6" value="UC01 Fazer Login" style="ellipse;whiteSpace=wrap;html=1;" parent="1" vertex="1">
          <mxGeometry x="370" y="40" width="120" height="80" as="geometry" />
        </mxCell>
        <mxCell id="1cpv1ZVEstOD3ygJp6sk-15" style="rounded=0;orthogonalLoop=1;jettySize=auto;html=1;dashed=1;" parent="1" source="1cpv1ZVEstOD3ygJp6sk-13" target="1cpv1ZVEstOD3ygJp6sk-6" edge="1">
          <mxGeometry relative="1" as="geometry">
            <mxPoint x="432" y="160" as="sourcePoint" />
          </mxGeometry>
        </mxCell>
        <mxCell id="1cpv1ZVEstOD3ygJp6sk-16" value="INCLUDE" style="edgeLabel;html=1;align=center;verticalAlign=middle;resizable=0;points=[];" parent="1cpv1ZVEstOD3ygJp6sk-15" vertex="1" connectable="0">
          <mxGeometry x="0.0714" relative="1" as="geometry">
            <mxPoint as="offset" />
          </mxGeometry>
        </mxCell>
        <mxCell id="c3A7Y9qn3njgjon1qsC4-8" style="rounded=0;orthogonalLoop=1;jettySize=auto;html=1;dashed=1;" edge="1" parent="1" source="1cpv1ZVEstOD3ygJp6sk-13" target="1cpv1ZVEstOD3ygJp6sk-14">
          <mxGeometry relative="1" as="geometry" />
        </mxCell>
        <mxCell id="c3A7Y9qn3njgjon1qsC4-9" value="INCLUDE" style="edgeLabel;html=1;align=center;verticalAlign=middle;resizable=0;points=[];" vertex="1" connectable="0" parent="c3A7Y9qn3njgjon1qsC4-8">
          <mxGeometry x="0.026" y="-2" relative="1" as="geometry">
            <mxPoint as="offset" />
          </mxGeometry>
        </mxCell>
        <mxCell id="c3A7Y9qn3njgjon1qsC4-24" style="rounded=0;orthogonalLoop=1;jettySize=auto;html=1;dashed=1;jumpStyle=arc;jumpSize=25;" edge="1" parent="1" source="1cpv1ZVEstOD3ygJp6sk-13" target="c3A7Y9qn3njgjon1qsC4-20">
          <mxGeometry relative="1" as="geometry" />
        </mxCell>
        <mxCell id="c3A7Y9qn3njgjon1qsC4-25" value="INCLUDE" style="edgeLabel;html=1;align=center;verticalAlign=middle;resizable=0;points=[];" vertex="1" connectable="0" parent="c3A7Y9qn3njgjon1qsC4-24">
          <mxGeometry x="-0.109" y="-1" relative="1" as="geometry">
            <mxPoint x="26" y="-2" as="offset" />
          </mxGeometry>
        </mxCell>
        <mxCell id="1cpv1ZVEstOD3ygJp6sk-13" value="UC02 Realizar Pedido" style="ellipse;whiteSpace=wrap;html=1;" parent="1" vertex="1">
          <mxGeometry x="540" y="230" width="136" height="80" as="geometry" />
        </mxCell>
        <mxCell id="c3A7Y9qn3njgjon1qsC4-4" value="" style="rounded=0;orthogonalLoop=1;jettySize=auto;html=1;dashed=1;startArrow=classic;startFill=0;endArrow=none;jumpStyle=arc;jumpSize=25;" edge="1" parent="1" source="1cpv1ZVEstOD3ygJp6sk-14" target="c3A7Y9qn3njgjon1qsC4-3">
          <mxGeometry relative="1" as="geometry" />
        </mxCell>
        <mxCell id="c3A7Y9qn3njgjon1qsC4-5" value="INCLUDE" style="edgeLabel;html=1;align=center;verticalAlign=middle;resizable=0;points=[];" vertex="1" connectable="0" parent="c3A7Y9qn3njgjon1qsC4-4">
          <mxGeometry x="0.011" y="3" relative="1" as="geometry">
            <mxPoint x="-8" y="4" as="offset" />
          </mxGeometry>
        </mxCell>
        <mxCell id="c3A7Y9qn3njgjon1qsC4-16" style="rounded=0;orthogonalLoop=1;jettySize=auto;html=1;dashed=1;" edge="1" parent="1" source="1cpv1ZVEstOD3ygJp6sk-14" target="1cpv1ZVEstOD3ygJp6sk-6">
          <mxGeometry relative="1" as="geometry" />
        </mxCell>
        <mxCell id="c3A7Y9qn3njgjon1qsC4-17" value="INCLUDE" style="edgeLabel;html=1;align=center;verticalAlign=middle;resizable=0;points=[];" vertex="1" connectable="0" parent="c3A7Y9qn3njgjon1qsC4-16">
          <mxGeometry x="-0.0133" relative="1" as="geometry">
            <mxPoint as="offset" />
          </mxGeometry>
        </mxCell>
        <mxCell id="1cpv1ZVEstOD3ygJp6sk-14" value="UC03 Manter Mesas" style="ellipse;whiteSpace=wrap;html=1;" parent="1" vertex="1">
          <mxGeometry x="354" y="160" width="120" height="80" as="geometry" />
        </mxCell>
        <mxCell id="c3A7Y9qn3njgjon1qsC4-3" value="UC03.1 Visualizar Mesas" style="ellipse;whiteSpace=wrap;html=1;" vertex="1" parent="1">
          <mxGeometry x="290" y="280" width="160" height="80" as="geometry" />
        </mxCell>
        <mxCell id="c3A7Y9qn3njgjon1qsC4-12" style="rounded=0;orthogonalLoop=1;jettySize=auto;html=1;endArrow=none;startFill=0;jumpStyle=arc;jumpSize=22;" edge="1" parent="1" source="1cpv1ZVEstOD3ygJp6sk-4" target="1cpv1ZVEstOD3ygJp6sk-6">
          <mxGeometry relative="1" as="geometry" />
        </mxCell>
        <mxCell id="c3A7Y9qn3njgjon1qsC4-23" style="rounded=0;orthogonalLoop=1;jettySize=auto;html=1;endArrow=none;startFill=0;jumpStyle=arc;jumpSize=25;" edge="1" parent="1" source="1cpv1ZVEstOD3ygJp6sk-4" target="c3A7Y9qn3njgjon1qsC4-20">
          <mxGeometry relative="1" as="geometry" />
        </mxCell>
        <mxCell id="1cpv1ZVEstOD3ygJp6sk-4" value="Gerente" style="shape=umlActor;verticalLabelPosition=bottom;verticalAlign=top;html=1;outlineConnect=0;" parent="1" vertex="1">
          <mxGeometry x="110" y="290" width="30" height="60" as="geometry" />
        </mxCell>
        <mxCell id="c3A7Y9qn3njgjon1qsC4-20" value="UC12 Manter Cardápio" style="ellipse;whiteSpace=wrap;html=1;" vertex="1" parent="1">
          <mxGeometry x="320" y="400" width="150" height="80" as="geometry" />
        </mxCell>
        <mxCell id="c3A7Y9qn3njgjon1qsC4-21" value="UC19 Emitir Alerta de Baixo Estoque" style="ellipse;whiteSpace=wrap;html=1;" vertex="1" parent="1">
          <mxGeometry x="550" y="510" width="220" height="80" as="geometry" />
        </mxCell>
      </root>
    </mxGraphModel>
  </diagram>
</mxfile>
